<?xml version="1.0" encoding="UTF-8" standalone="no"?>
<!-- Created with Inkscape (http://www.inkscape.org/) -->

<svg
   width="64pt"
   height="64pt"
   viewBox="0 0 22.577778 22.577778"
   version="1.1"
   id="svg831"
   inkscape:version="1.1.2 (b8e25be833, 2022-02-05)"
   sodipodi:docname="Export - Unblash - 64px.svg"
   inkscape:export-filename="E:\Project Design\TR Icon Design Project\Carlos - Icon Design Project\Done\Flat\02 - Volleyball.png"
   inkscape:export-xdpi="576"
   inkscape:export-ydpi="576"
   xmlns:inkscape="http://www.inkscape.org/namespaces/inkscape"
   xmlns:sodipodi="http://sodipodi.sourceforge.net/DTD/sodipodi-0.dtd"
   xmlns="http://www.w3.org/2000/svg"
   xmlns:svg="http://www.w3.org/2000/svg"
   xmlns:rdf="http://www.w3.org/1999/02/22-rdf-syntax-ns#"
   xmlns:cc="http://creativecommons.org/ns#"
   xmlns:dc="http://purl.org/dc/elements/1.1/">
  <defs
     id="defs825">
    <pattern
       id="EMFhbasepattern"
       patternUnits="userSpaceOnUse"
       width="6"
       height="6"
       x="0"
       y="0" />
    <pattern
       id="EMFhbasepattern-9"
       patternUnits="userSpaceOnUse"
       width="6"
       height="6"
       x="0"
       y="0" />
    <pattern
       id="EMFhbasepattern-0"
       patternUnits="userSpaceOnUse"
       width="6"
       height="6"
       x="0"
       y="0" />
    <pattern
       id="EMFhbasepattern-7"
       patternUnits="userSpaceOnUse"
       width="6"
       height="6"
       x="0"
       y="0" />
    <pattern
       id="EMFhbasepattern-2"
       patternUnits="userSpaceOnUse"
       width="6"
       height="6"
       x="0"
       y="0" />
    <pattern
       id="EMFhbasepattern-98"
       patternUnits="userSpaceOnUse"
       width="6"
       height="6"
       x="0"
       y="0" />
    <pattern
       id="EMFhbasepattern-6"
       patternUnits="userSpaceOnUse"
       width="6"
       height="6"
       x="0"
       y="0" />
    <pattern
       id="EMFhbasepattern-01"
       patternUnits="userSpaceOnUse"
       width="6"
       height="6"
       x="0"
       y="0" />
    <pattern
       id="EMFhbasepattern-07"
       patternUnits="userSpaceOnUse"
       width="6"
       height="6"
       x="0"
       y="0" />
    <pattern
       id="EMFhbasepattern-8"
       patternUnits="userSpaceOnUse"
       width="6"
       height="6"
       x="0"
       y="0" />
    <pattern
       id="EMFhbasepattern-4"
       patternUnits="userSpaceOnUse"
       width="6"
       height="6"
       x="0"
       y="0" />
    <pattern
       id="EMFhbasepattern-40"
       patternUnits="userSpaceOnUse"
       width="6"
       height="6"
       x="0"
       y="0" />
    <pattern
       id="EMFhbasepattern-08"
       patternUnits="userSpaceOnUse"
       width="6"
       height="6"
       x="0"
       y="0" />
    <pattern
       id="EMFhbasepattern-04"
       patternUnits="userSpaceOnUse"
       width="6"
       height="6"
       x="0"
       y="0" />
    <pattern
       id="EMFhbasepattern-014"
       patternUnits="userSpaceOnUse"
       width="6"
       height="6"
       x="0"
       y="0" />
    <pattern
       id="EMFhbasepattern-27"
       patternUnits="userSpaceOnUse"
       width="6"
       height="6"
       x="0"
       y="0" />
    <pattern
       id="EMFhbasepattern-09"
       patternUnits="userSpaceOnUse"
       width="6"
       height="6"
       x="0"
       y="0" />
    <pattern
       id="EMFhbasepattern-5"
       patternUnits="userSpaceOnUse"
       width="6"
       height="6"
       x="0"
       y="0" />
    <pattern
       id="EMFhbasepattern-018"
       patternUnits="userSpaceOnUse"
       width="6"
       height="6"
       x="0"
       y="0" />
  </defs>
  <sodipodi:namedview
     id="base"
     pagecolor="#ffffff"
     bordercolor="#666666"
     borderopacity="1.0"
     inkscape:pageopacity="0.0"
     inkscape:pageshadow="2"
     inkscape:zoom="4.9552717"
     inkscape:cx="44.498065"
     inkscape:cy="42.379109"
     inkscape:document-units="pt"
     inkscape:current-layer="layer1"
     showgrid="false"
     units="pt"
     inkscape:window-width="958"
     inkscape:window-height="1041"
     inkscape:window-x="-7"
     inkscape:window-y="0"
     inkscape:window-maximized="0"
     inkscape:pagecheckerboard="true"
     inkscape:showpageshadow="false"
     inkscape:object-paths="true"
     inkscape:snap-intersection-paths="true"
     inkscape:snap-smooth-nodes="true"
     inkscape:snap-midpoints="true"
     showguides="true"
     inkscape:snap-bbox="true"
     inkscape:bbox-nodes="true"
     inkscape:snap-nodes="false"
     inkscape:snap-global="true"
     inkscape:snap-others="false">
    <inkscape:grid
       type="xygrid"
       id="grid1378" />
    <sodipodi:guide
       position="0.97013831,21.607643"
       orientation="78.000048,0"
       id="guide1380"
       inkscape:locked="false" />
    <sodipodi:guide
       position="0.97013831,0.97013129"
       orientation="0,78.000005"
       id="guide1382"
       inkscape:locked="false" />
    <sodipodi:guide
       position="21.607639,0.97013129"
       orientation="-78.000048,0"
       id="guide1384"
       inkscape:locked="false" />
    <sodipodi:guide
       position="21.607639,21.607643"
       orientation="0,-78.000005"
       id="guide1386"
       inkscape:locked="false" />
  </sodipodi:namedview>
  <metadata
     id="metadata828">
    <rdf:RDF>
      <cc:Work
         rdf:about="">
        <dc:format>image/svg+xml</dc:format>
        <dc:type
           rdf:resource="http://purl.org/dc/dcmitype/StillImage" />
      </cc:Work>
    </rdf:RDF>
  </metadata>
  <g
     inkscape:label="Icon"
     inkscape:groupmode="layer"
     id="layer1"
     transform="translate(0,-274.42223)">
    <g
       id="g401990"
       style="display:inline;stroke-width:0.794828"
       transform="matrix(1.2581336,0,0,1.2581336,0.65361048,-39.336162)">
      <path
         style="color:#000000;fill:#fed883;fill-opacity:1;stroke-width:0.794828;stroke-linecap:round;stroke-linejoin:round;-inkscape-stroke:none"
         d="m 5.6113281,250.15625 c -1.3727171,0 -2.7452005,0.52255 -3.7910156,1.56836 -2.09163028,2.09163 -2.09164324,5.49041 0,7.58203 1.302027,1.36423 3.3187258,1.69615 5.1484375,1.88867 0.9160251,0.0964 1.7922519,0.15566 2.5097656,0.27539 0.7175134,0.11974 1.2634384,0.30836 1.5410154,0.58594 l 1.271485,1.27148 a 0.26460996,0.26460996 0 0 0 0.375,0 l 0.757812,-0.75781 a 0.26460996,0.26460996 0 0 0 0,-0.375 l -1.271484,-1.27148 c -0.277578,-0.27758 -0.466201,-0.82546 -0.585938,-1.54297 -0.119736,-0.71751 -0.179008,-1.59179 -0.27539,-2.50781 -0.192519,-1.82972 -0.524447,-3.84641 -1.8886722,-5.14844 -1.0458135,-1.04583 -2.4182985,-1.56836 -3.7910157,-1.56836 z"
         id="path9365" />
      <path
         id="path131737"
         style="color:#000000;fill:#fca311;fill-opacity:1;stroke-width:0.794828;stroke-linecap:round;stroke-linejoin:round;-inkscape-stroke:none"
         d="m 1.8205608,251.72472 c -0.088761,0.0888 -0.1735376,0.1801 -0.2547648,0.27337 1.0054489,-0.87509 2.2608609,-1.31258 3.5165811,-1.31258 1.3727174,0 2.7451697,0.52255 3.7909832,1.56838 1.3642247,1.30203 1.6957377,3.3188 1.8882567,5.14852 0.09638,0.91602 0.1557,1.79035 0.275436,2.50786 0.119737,0.71751 0.308432,1.26496 0.586011,1.54254 l 1.271756,1.27176 0.52915,-0.52917 -1.271757,-1.27176 c -0.277578,-0.27758 -0.466274,-0.82503 -0.586011,-1.54254 -0.119736,-0.71751 -0.179053,-1.59184 -0.275436,-2.50786 -0.192519,-1.82972 -0.524031,-3.84649 -1.8882565,-5.14852 -1.0458136,-1.04583 -2.4182658,-1.56838 -3.7909745,-1.56838 -1.3727083,0 -2.7451592,0.52257 -3.7909742,1.56838 z"
         sodipodi:nodetypes="ccscsssccsssccc" />
      <path
         style="color:#000000;fill:#ffffff;fill-opacity:1;stroke-width:0.794828;stroke-linecap:round;stroke-linejoin:round;-inkscape-stroke:none"
         d="m 5.6113281,251.75391 c 0.9615689,0 1.9230224,0.36833 2.6582032,1.10351 1.4703588,1.47035 1.4703625,3.84605 0,5.31641 -1.4703654,1.47037 -3.8460525,1.47036 -5.3164063,0 -1.4703667,-1.47036 -1.470364,-3.84604 0,-5.31641 0.7351825,-0.73518 1.6966342,-1.10351 2.6582031,-1.10351 z"
         id="path9515" />
      <path
         id="path6126-7"
         style="color:#000000;fill:#4d4d4d;fill-opacity:1;stroke-width:0.794828;stroke-linecap:round;stroke-linejoin:round;-inkscape-stroke:none"
         d="m 5.2518763,251.49218 v 1.51773 c -0.9973553,0 -1.9947106,0 -2.9920659,0 v 0.52917 h 0.8454264 v 1.61696 h -1.51722 v 0.52968 h 1.51722 v 1.61695 H 2.1481893 v 0.52917 h 0.9570475 v 1.02733 h 0.5296834 v -1.02733 h 1.6169561 v 1.70739 h 0.529166 v -1.70739 h 1.617473 v 1.07435 h 0.529166 v -1.07435 h 1.1467 v -0.52917 h -1.1467 v -1.61695 h 1.705323 v -0.52968 h -1.705323 v -1.61696 h 1.027328 v -0.52917 h -1.027328 v -0.95498 h -0.529166 v 0.95498 h -1.617473 v -1.51773 z m -1.6169561,2.0469 h 1.6169561 v 1.61696 H 3.6349202 Z m 2.1461221,0 h 1.617473 v 1.61696 h -1.617473 z m -2.1461221,2.14664 h 1.6169561 v 1.61695 H 3.6349202 Z m 2.1461221,0 h 1.617473 v 1.61695 h -1.617473 z"
         sodipodi:nodetypes="ccccccccccccccccccccccccccccccccccccccccccccccccccccccccccccc" />
      <path
         id="path9371"
         style="color:#000000;fill:#fca311;fill-opacity:1;stroke-width:0.794828;stroke-linecap:round;stroke-linejoin:round;-inkscape-stroke:none"
         d="m 5.6115438,251.22863 c -1.0981021,-1e-5 -2.1971135,0.41738 -3.0334065,1.25367 -1.67258428,1.67259 -1.67258846,4.39217 0,6.06474 1.6725756,1.67258 4.3937107,1.67259 6.0662965,0 1.6725852,-1.67257 1.6725822,-4.39217 0,-6.06474 -0.836291,-0.83629 -1.9347876,-1.25367 -3.03289,-1.25367 z m 0,0.52503 c 0.9615689,0 1.923055,0.36863 2.6582358,1.10381 1.4703589,1.47035 1.4703626,3.84611 0,5.31647 -1.4703653,1.47037 -3.8461176,1.47036 -5.3164715,0 -1.4703666,-1.47036 -1.4703639,-3.8461 0,-5.31647 0.7351826,-0.73518 1.6966668,-1.10381 2.6582357,-1.10381 z" />
      <path
         style="color:#000000;fill:#7d8e9e;stroke-width:0.794828;stroke-linecap:round;stroke-linejoin:round;-inkscape-stroke:none"
         d="m 13.798828,262.94336 -0.759765,0.75976 c -0.205866,0.20588 -0.205862,0.54804 0,0.75391 l 1.86914,1.86719 c 0.310637,0.31064 0.822168,0.31064 1.132813,0 l 0.380859,-0.37891 c 0.310636,-0.31064 0.310636,-0.82217 0,-1.13281 l -1.869141,-1.86914 c -0.205867,-0.20588 -0.54803,-0.20586 -0.753906,0 z"
         id="path9377" />
      <path
         id="path149477"
         style="color:#000000;fill:#5b6571;fill-opacity:1;stroke-width:0.794828;stroke-linecap:round;stroke-linejoin:round;-inkscape-stroke:none"
         d="m 14.175879,262.78916 c -0.09151,0 -0.183224,0.0228 -0.264583,0.0687 0.04035,0.0228 0.07803,0.0512 0.112138,0.0853 l 1.869136,1.86913 c 0.310637,0.31064 0.310637,0.82263 0,1.13327 l -0.380855,0.37879 c -0.08766,0.0876 -0.191171,0.15043 -0.30179,0.18862 0.281405,0.0971 0.607965,0.0344 0.830957,-0.18862 l 0.380855,-0.37879 c 0.310636,-0.31064 0.310636,-0.82263 0,-1.13327 L 14.5526,262.94316 c -0.102933,-0.10294 -0.239712,-0.154 -0.376721,-0.154 z" />
      <path
         id="path147949"
         style="color:#000000;fill:#5b6571;fill-opacity:1;stroke-width:0.794828;stroke-linecap:round;stroke-linejoin:round;-inkscape-stroke:none"
         d="m 14.175879,262.78916 c -0.137008,0 -0.2743,0.0511 -0.377238,0.154 l -0.759643,0.76016 c -0.205866,0.20588 -0.205862,0.54809 0,0.75396 l 0.261482,0.26148 1.240752,-1.24024 c 0.107304,-0.1073 0.157784,-0.25171 0.152445,-0.39429 L 14.5526,262.94316 c -0.102933,-0.10294 -0.239712,-0.154 -0.376721,-0.154 z" />
      <path
         id="path16463"
         style="color:#000000;fill:#fca311;fill-opacity:1;stroke-width:0.794828;stroke-linecap:round;stroke-linejoin:round;-inkscape-stroke:none"
         d="m 9.8438439,257.67783 c -0.1834354,0.45237 -0.4587179,0.87628 -0.8263062,1.24385 -0.3675923,0.3676 -0.7914966,0.64286 -1.2438518,0.8263 -0.1344659,0.0553 -0.1990848,0.2088 -0.144694,0.34365 0.054521,0.13527 0.2082281,0.20092 0.3436482,0.14676 0.5164598,-0.20943 1.001924,-0.52339 1.4200686,-0.94154 0.4181491,-0.41813 0.7316013,-0.90361 0.9410283,-1.42007 0.05422,-0.13528 -0.01117,-0.28893 -0.146245,-0.34365 -0.150557,-0.0521 -0.2965354,0.005 -0.3436481,0.1447 z m -0.7110678,2.42932 c -0.1227929,0.0802 -0.15687,0.24506 -0.075964,0.36742 0.080727,0.12193 0.245056,0.15525 0.3669028,0.0744 0.2379027,-0.15705 0.4627401,-0.33975 0.6717931,-0.54881 0.20905,-0.20905 0.391717,-0.43438 0.548804,-0.67231 0.08095,-0.12172 0.04786,-0.28601 -0.0739,-0.3669 -0.145672,-0.0835 -0.275472,-0.0642 -0.367417,0.0744 -0.137569,0.20838 -0.2967728,0.4079 -0.4805907,0.59172 -0.1838151,0.18383 -0.381271,0.34251 -0.5896282,0.48008 z m 1.2252509,0.3359 c -0.03881,0.14601 0.04489,0.2916 0.186035,0.3297 0.141111,0.0382 0.286324,-0.0451 0.325045,-0.19121 0.03881,-0.14601 -0.04439,-0.29159 -0.185518,-0.32969 -0.175046,-0.0327 -0.282272,0.0573 -0.325562,0.1912 z"
         sodipodi:nodetypes="ccccccccccccccccccccccc" />
      <path
         style="color:#000000;fill:#7d8e9e;fill-opacity:1;stroke-width:0.794828;stroke-linecap:round;stroke-linejoin:round;-inkscape-stroke:none"
         d="m 13.419922,261.82617 -1.498047,1.49805 c -0.204439,0.20443 -0.204437,0.54361 0,0.74805 l 0.375,0.37304 c 0.204441,0.20443 0.543616,0.20444 0.748047,0 l 1.496094,-1.49609 c 0.204439,-0.20444 0.204437,-0.54361 0,-0.74805 l -0.373047,-0.375 c -0.204436,-0.20443 -0.543611,-0.20443 -0.748047,0 z"
         id="path9425" />
      <path
         id="path135183"
         style="fill:#fca311;fill-opacity:1;stroke-width:0.794828;stroke-linecap:round;stroke-linejoin:round"
         d="m 3.5723918,259.63845 c -0.3833392,0 -0.7469997,0.0906 -1.0707357,0.25063 0.942684,0.65898 2.1074224,0.97026 3.2747355,1.15342 -0.3907562,-0.82701 -1.2341926,-1.40405 -2.2039998,-1.40405 z" />
      <path
         style="color:#000000;fill:#9ccc65;fill-opacity:1;stroke-width:0.794828;stroke-linecap:round;stroke-linejoin:round;-inkscape-stroke:none"
         d="m 3.5722656,260.08984 c -1.0928151,0 -1.9843757,0.89156 -1.984375,1.98438 -7e-7,1.09281 0.8915599,1.98437 1.984375,1.98437 1.0928152,0 1.9843757,-0.89156 1.984375,-1.98437 7e-7,-1.09282 -0.8915598,-1.98438 -1.984375,-1.98438 z"
         id="path9431" />
      <path
         id="path137493"
         style="color:#000000;fill:#74a838;fill-opacity:1;stroke-width:0.794828;stroke-linecap:round;stroke-linejoin:round;-inkscape-stroke:none"
         d="m 3.5723918,260.08958 c -0.6811677,0 -1.2841481,0.34669 -1.6417603,0.8723 0.3176388,-0.21611 0.7009462,-0.34261 1.1125936,-0.34261 1.0928152,0 1.9843759,0.89155 1.9843751,1.98437 2e-7,0.41166 -0.1270069,0.79444 -0.3431316,1.11208 0.5256083,-0.35761 0.8722988,-0.96008 0.8722982,-1.64124 8e-7,-1.09282 -0.8915598,-1.9849 -1.984375,-1.9849 z" />
      <path
         id="path18926"
         style="color:#000000;fill:#ececec;stroke-width:0.794828;stroke-linecap:round;stroke-linejoin:round;-inkscape-stroke:none"
         d="m 3.1760391,262.07028 c 3e-7,-0.5611 -0.2294549,-1.07074 -0.5978963,-1.43919 l -0.1607192,-0.16892 c -0.1442728,0.10371 -0.2736448,0.22606 -0.3855062,0.3638 l 0.1674316,0.17415 c 0.00119,0.001 0.0024,0.003 0.00362,0.004 0.273283,0.27329 0.443384,0.64797 0.4433838,1.06608 -3e-7,0.41813 -0.1701043,0.79539 -0.4433838,1.06867 l -0.1777669,0.17519 c 0.1108819,0.13802 0.2396251,0.26052 0.3829223,0.36483 l 0.1689834,-0.16636 c 0.3694799,-0.36944 0.598931,-0.88113 0.5989313,-1.44225 z m 1.3906074,-1.43913 c -0.3684415,0.36845 -0.5978967,0.87809 -0.5978964,1.43919 3e-7,0.56112 0.2294517,1.07333 0.4136741,1.25855 -2.6e-6,6.7e-4 0.353721,0.3511 0.353721,0.3511 0.143259,-0.10423 0.2720412,-0.22692 0.3829222,-0.36484 l -0.1813843,-0.17777 c -0.2722147,-0.27313 -0.4397661,-0.64941 -0.4397663,-1.06661 -3e-7,-0.41811 0.1680337,-0.79331 0.4433868,-1.0686 z"
         sodipodi:nodetypes="scccccsccccscsccccscc" />
      <path
         id="path23129"
         style="color:#000000;fill:#5b6571;fill-opacity:1;stroke-width:0.794828;stroke-linecap:round;stroke-linejoin:round;-inkscape-stroke:none"
         d="m 0.54311932,259.87513 c -0.0456046,0.13855 0.0295187,0.28787 0.16794841,0.33383 l 0.79271647,0.26561 c 0.1387019,0.0459 0.2883872,-0.0292 0.3343465,-0.16794 0.045742,-0.1381 -0.028588,-0.28722 -0.1663981,-0.33383 l -0.79478353,-0.26562 c -0.16594876,-0.0463 -0.28123909,0.0351 -0.33382975,0.16795 z m 0.43149828,0.89036 -0.51573082,0.17209 c -0.13842449,0.046 -0.21354654,0.19528 -0.1679484,0.33382 0.0459598,0.13843 0.19528203,0.21355 0.33382975,0.16795 L 1.142566,261.26781 c 0.1378749,-0.0468 0.2120082,-0.19624 0.1658813,-0.33435 -0.069918,-0.1709 -0.216059,-0.20454 -0.3338297,-0.16797 z"
         sodipodi:nodetypes="cccccccccccccc" />
      <path
         id="path10257"
         style="color:#000000;fill:#fca311;fill-opacity:1;stroke-width:0.794828;stroke-linecap:round;stroke-linejoin:round;-inkscape-stroke:none"
         d="m 12.116573,260.8854 c -0.378556,0.37856 -0.757289,0.75729 -1.135848,1.13585 0.126689,0.11761 0.251216,0.24756 0.37569,0.37203 0.377448,-0.37779 0.754785,-0.75546 1.132231,-1.13326 -0.123478,-0.12186 -0.253507,-0.2541 -0.372073,-0.37462 z"
         sodipodi:nodetypes="ccccc" />
      <path
         id="path10259"
         style="color:#000000;fill:#5b6571;stroke-width:0.794828;stroke-linecap:round;stroke-linejoin:round;-inkscape-stroke:none"
         d="m 14.907101,263.29766 c -0.504729,0.5044 -1.009345,1.0087 -1.51412,1.51308 l 0.374654,0.37414 c 0.504261,-0.50465 1.008812,-1.009 1.513086,-1.5136 z" />
      <path
         id="path132563"
         style="color:#000000;fill:#ca7d02;fill-opacity:1;stroke-width:0.794828;stroke-linecap:round;stroke-linejoin:round;-inkscape-stroke:none"
         d="m 11.95948,261.78923 c 0.1763,-0.17646 0.352842,-0.35267 0.529167,-0.52916 -0.125254,-0.12366 -0.248691,-0.24921 -0.372074,-0.37467 -0.175844,0.17585 -0.351731,0.35173 -0.527616,0.52762 0.11735,0.13098 0.246148,0.25184 0.370523,0.37621 z"
         sodipodi:nodetypes="ccccc" />
      <path
         id="path143857"
         style="color:#000000;fill:#cccccc;fill-opacity:1;stroke-width:0.794828;stroke-linecap:round;stroke-linejoin:round;-inkscape-stroke:none"
         d="m 2.0319136,260.82647 0.044442,0.046 c 0.1655494,-0.0929 0.3456461,-0.16274 0.5358846,-0.20515 -0.063735,-0.0669 -0.129357,-0.13613 -0.1948166,-0.20515 -0.037678,0.0265 -0.074834,0.0578 -0.104646,0.0809 -0.072618,0.0548 -0.1309366,0.12166 -0.195338,0.1848 -0.03069,0.0333 -0.058634,0.0655 -0.085526,0.0986 z m 2.6949349,-0.36452 c -0.1824433,0.17368 -0.3675503,0.37728 -0.4728445,0.57175 0.1464001,0.11324 0.2765888,0.24631 0.3865396,0.39533 0.1292695,-0.25822 0.276266,-0.40176 0.471295,-0.60396 -0.08907,-0.11773 -0.2490889,-0.26748 -0.3849901,-0.36312 z m 0.223754,2.6879 c -0.052777,0.18301 -0.1315247,0.35519 -0.2315105,0.51263 l 0.017052,0.0171 c 0.031394,-0.0236 0.064378,-0.0497 0.1028683,-0.081 0.038491,-0.0313 0.065651,-0.0561 0.098627,-0.0874 0.032976,-0.0313 0.055539,-0.0539 0.077558,-0.0772 0.038014,-0.0391 0.071076,-0.0811 0.103864,-0.1185 z"
         sodipodi:nodetypes="cccccccccccccccccccc" />
      <path
         id="path150771"
         style="color:#000000;fill:#4d545c;fill-opacity:1;stroke-width:0.794828;stroke-linecap:round;stroke-linejoin:round;-inkscape-stroke:none"
         d="m 14.907101,263.29766 c -0.08823,0.0882 -0.176361,0.17641 -0.264584,0.26458 l 0.373621,0.37362 c 0.08818,-0.0882 0.176419,-0.17636 0.264583,-0.26458 z" />
    </g>
  </g>
</svg>
